<svg width="45" height="47" viewBox="0 0 45 47" fill="none" xmlns="http://www.w3.org/2000/svg">
<rect x="3.04736" y="3.66806" width="38.7684" height="39.6639" rx="8" fill="#FFA132"/>
<rect x="3.04736" y="3.66806" width="38.7684" height="39.6639" rx="8" stroke="#FFA132" stroke-width="6"/>
<path d="M31.5601 14.1756L34.3479 14.0875V23.9531H30.9849L31.5601 14.1756Z" fill="#FFA132"/>
<ellipse cx="22.9755" cy="31.1761" rx="3.31877" ry="4.2281" fill="#FFA132"/>
<path d="M16.8871 17.3907C16.8871 19.7259 15.2685 19.3286 13.4356 19.3286C11.6027 19.3286 10.3823 18.712 10.3823 17.8752C10.3823 15.5401 11.7354 15.2327 13.5683 15.2327C15.4013 15.2327 16.8871 15.0556 16.8871 17.3907Z" fill="#FFA132"/>
<path d="M8.73342 9.80397C8.57007 9.89501 8.35445 10.0901 8.24338 10.2397L8.04736 10.5193V14.005V17.4972L8.21724 17.9329C8.83142 19.5002 10.1513 20.5407 11.739 20.7033L12.1637 20.7488L12.1963 28.6177L12.229 36.4865L12.3728 36.7206C12.4577 36.8507 12.6472 37.0393 12.7975 37.1433C13.0392 37.3124 13.1242 37.3319 13.5685 37.3319C14.0062 37.3319 14.0977 37.3124 14.3264 37.1564C14.4636 37.0588 14.6531 36.8702 14.7445 36.7336L14.9079 36.493L14.9406 28.6242L14.9732 20.7488L15.3979 20.7033C17.0249 20.5407 18.4492 19.3767 18.9458 17.8224C19.0895 17.3737 19.0895 17.3021 19.0895 13.9465V10.5258L18.9131 10.2722C18.6256 9.869 18.3251 9.69992 17.822 9.6739C17.2862 9.64789 16.9007 9.82348 16.6067 10.2397L16.4107 10.5193L16.378 12.1516L16.3453 13.7904H15.6593H14.9732L14.9406 12.1581C14.9079 10.5518 14.9079 10.5258 14.7445 10.2917C14.4701 9.88201 14.1369 9.69992 13.6403 9.6739C13.1046 9.64789 12.7191 9.82348 12.425 10.2397L12.229 10.5193L12.1963 12.1516L12.1637 13.7904H11.4776H10.7916L10.7589 12.1581L10.7262 10.5258L10.5498 10.2722C10.2623 9.869 9.96178 9.69992 9.45867 9.6739C9.09931 9.6544 8.97517 9.68041 8.73342 9.80397ZM16.3127 16.7494C16.3127 17.1461 15.9925 17.5818 15.5286 17.8289C15.3195 17.9394 15.1366 17.9525 13.5685 17.9525C11.9219 17.9525 11.8239 17.946 11.5756 17.8094C11.1313 17.5753 10.8242 17.1396 10.8242 16.7494V16.5543H13.5685H16.3127V16.7494Z" fill="white"/>
<path d="M22.2777 9.80397C22.1143 9.89501 21.8987 10.0901 21.7876 10.2397L21.5916 10.5193L21.559 17.7704L21.5263 25.0214L20.9774 25.184C19.6053 25.5742 18.5795 26.3936 18.0045 27.5447C17.5014 28.5656 17.4165 28.9884 17.4165 30.4711C17.4165 31.5571 17.4361 31.8172 17.5537 32.292C18.194 34.8087 19.6119 36.5255 21.5916 37.1824C21.9771 37.3059 22.1862 37.3319 22.9311 37.3319C23.6759 37.3319 23.885 37.3059 24.2705 37.1824C26.2503 36.5255 27.6681 34.8087 28.3084 32.292C28.426 31.8172 28.4456 31.5571 28.4456 30.4711C28.4456 29.3785 28.426 29.1314 28.3019 28.6827C27.8118 26.8813 26.6423 25.6847 24.8847 25.184L24.3358 25.0214L24.3032 17.7769L24.2705 10.5258L24.0941 10.2722C23.8066 9.869 23.506 9.69992 23.0029 9.67391C22.6436 9.6544 22.5194 9.68041 22.2777 9.80397ZM24.2182 27.8698C24.95 28.1169 25.427 28.6827 25.6099 29.5021C25.7341 30.0679 25.6622 31.4856 25.4793 32.0644C25.1395 33.1309 24.4926 34.0283 23.7935 34.3795C23.3558 34.6006 22.5129 34.6071 22.0817 34.386C21.3368 34.0023 20.7357 33.1699 20.3698 32.0318C20.2391 31.6026 20.2195 31.414 20.2195 30.4711C20.2195 29.4241 20.2261 29.3916 20.409 28.9884C20.7357 28.286 21.4021 27.8308 22.2777 27.7137C22.2777 27.7137 23.8131 27.7397 24.2182 27.8698Z" fill="white"/>
<path d="M34.8753 9.77796C34.0389 10.2137 32.7452 11.3972 31.9481 12.4443C29.9618 15.078 28.8053 18.7979 28.5374 23.4476C28.4394 25.1515 28.4852 25.4051 28.936 25.8538C29.3738 26.2895 29.4914 26.309 31.9742 26.309H34.1043V31.336V36.3695L34.2545 36.6426C34.333 36.7987 34.529 37.0133 34.6858 37.1303C34.9406 37.3124 35.0059 37.3319 35.4698 37.3319C35.9141 37.3319 36.0056 37.3124 36.2343 37.1564C36.3715 37.0588 36.561 36.8702 36.6525 36.7336L36.8158 36.493V23.5127V10.5258L36.6394 10.2722C36.3519 9.8625 36.0514 9.69992 35.5482 9.6739C35.2216 9.6609 35.0582 9.68041 34.8753 9.77796ZM34.1043 18.8954V23.5127H32.7191H31.3405L31.3862 22.8428C31.5038 21.0545 31.9416 18.8954 32.51 17.3021C32.889 16.2486 33.9083 14.2782 34.0716 14.2782C34.0912 14.2782 34.1043 16.3527 34.1043 18.8954Z" fill="white"/>
</svg>
